<?xml version="1.0" encoding="utf-8"?>
<!-- Generator: Adobe Illustrator 24.3.0, SVG Export Plug-In . SVG Version: 6.00 Build 0)  -->
<svg version="1.1" id="Capa_1" xmlns="http://www.w3.org/2000/svg" xmlns:xlink="http://www.w3.org/1999/xlink" x="0px" y="0px"
	 viewBox="0 0 512 512" style="enable-background:new 0 0 512 512;" xml:space="preserve">
<style type="text/css">
	.st0{fill:#2CD465;stroke:#2CD465;stroke-miterlimit:10;}
</style>
<path class="st0" d="M203.17,293.39H11c-2.76,0-5-2.24-5-5v-63.66c0-2.75,2.23-4.99,4.98-5l192.17-0.48c2.76-0.01,5.01,2.23,5.01,5
	v64.14C208.17,291.15,205.93,293.39,203.17,293.39z"/>
<path class="st0" d="M308.15,218.94l192.83-0.54c2.77-0.01,5.01,2.23,5.01,5v64.99c0,2.76-2.24,5-5,5H308.17c-2.76,0-5-2.24-5-5
	v-64.45C303.17,221.18,305.4,218.95,308.15,218.94z"/>
<path class="st0" d="M219.52,501.01l-1.34-490c-0.01-2.77,2.23-5.01,5-5.01h64.99c2.76,0,5,2.24,5,5v490c0,2.76-2.24,5-5,5h-63.65
	C221.76,506,219.52,503.77,219.52,501.01z"/>
<path class="st0" d="M24.59,311.94L201,487.51c3.15,3.14,8.53,0.91,8.53-3.55v-60.88c0-1.33-0.53-2.61-1.48-3.55L92.46,304.84
	c-0.94-0.93-2.2-1.45-3.52-1.45H28.12C23.65,303.39,21.43,308.79,24.59,311.94z"/>
<path class="st0" d="M311.7,24.52l175.74,175.33c3.16,3.15,0.93,8.54-3.53,8.54h-60.84c-1.32,0-2.59-0.52-3.53-1.46L304.64,92.47
	c-0.94-0.94-1.47-2.21-1.47-3.54V28.06C303.17,23.6,308.55,21.37,311.7,24.52z"/>
</svg>
